<svg xmlns="http://www.w3.org/2000/svg" width="15.213" height="17.31" viewBox="0 0 15.213 17.31">
    <g data-name="user (12)" style="opacity:.5">
        <g data-name="Group 19616">
            <g data-name="Group 19615">
                <path data-name="Path 16282" d="M125.564 0a4.564 4.564 0 1 0 4.564 4.564A4.569 4.569 0 0 0 125.564 0z" transform="translate(-117.957)" style="fill:#7c7c7c"/>
            </g>
        </g>
        <g data-name="Group 19618">
            <g data-name="Group 19617">
                <path data-name="Path 16283" d="M44.285 301.967A6.506 6.506 0 0 0 39.621 300h-2.028a6.506 6.506 0 0 0-4.664 1.967A6.652 6.652 0 0 0 31 306.66a.507.507 0 0 0 .507.507h14.2a.507.507 0 0 0 .507-.507 6.652 6.652 0 0 0-1.929-4.693z" transform="translate(-31 -289.858)" style="fill:#7c7c7c"/>
            </g>
        </g>
    </g>
</svg>
