<svg xmlns="http://www.w3.org/2000/svg" width="15.266" height="15.154" viewBox="0 0 15.266 15.154">
    <g style="opacity:.5">
        <path data-name="Path 16277" d="m7.065 142.769-6.858-2.887a.149.149 0 0 0-.207.137v7.719a.477.477 0 0 0 .3.443l6.652 2.661a.149.149 0 0 0 .2-.138v-7.8a.149.149 0 0 0-.087-.135z" transform="translate(0 -135.699)" style="fill:#7c7c7c"/>
        <path data-name="Path 16278" d="M35.521 9.911 42.15 7.12a.149.149 0 0 0 .005-.272l-6.49-3.029a.477.477 0 0 0-.4 0l-6.49 3.029a.149.149 0 0 0 .005.272l6.629 2.791a.149.149 0 0 0 .112 0z" transform="translate(-27.83 -3.662)" style="fill:#7c7c7c"/>
        <path data-name="Path 16279" d="M272 142.906v7.8a.149.149 0 0 0 .2.138l6.652-2.661a.477.477 0 0 0 .3-.443v-7.719a.149.149 0 0 0-.207-.137l-6.858 2.888a.149.149 0 0 0-.087.134z" transform="translate(-263.89 -135.699)" style="fill:#7c7c7c"/>
    </g>
</svg>
