<svg xmlns="http://www.w3.org/2000/svg" width="15.385" height="16.578" viewBox="0 0 15.385 16.578">
    <g style="opacity:.5">
        <path data-name="Path 16293" d="M35.456 91.441H34.43V84.6c-2.51.927-4.965 1.844-7.43 2.76.764 2.139 1.506 4.255 2.259 6.361.164.447.251.6.524.567l4.975-.011a2.1 2.1 0 0 0 .262 0l4.932-.011c.818-2.291 1.615-4.561 2.433-6.841-2.313-.938-4.594-1.866-6.929-2.815z" transform="translate(-27 -77.715)" style="fill:#7c7c7c"/>
        <path data-name="Path 16294" d="M53.623 48.659a.663.663 0 0 1 .458.011c1.484.589 2.957 1.189 4.43 1.789l.982.393c.011-.055.022-.076.022-.087-.284-1.124-.567-2.248-.873-3.372a.3.3 0 0 0-.24-.164c-.513-.011-1.026-.022-1.538 0-.218.011-.295-.065-.349-.284-.109-.513-.251-1.015-.371-1.517a.242.242 0 0 0-.273-.229H51.8a.233.233 0 0 0-.273.218c-.12.524-.262 1.047-.382 1.582a.254.254 0 0 1-.295.229c-.513-.011-1.026 0-1.538-.011-.185 0-.262.055-.306.251-.207.84-.426 1.669-.644 2.5-.055.207-.1.426-.164.687.2-.065.338-.109.48-.164q2.473-.932 4.945-1.832z" transform="translate(-45.887 -42.614)" style="fill:#7c7c7c"/>
        <path data-name="Path 16295" d="M95.513 22.056a.556.556 0 1 0-1.113 0v1.528h1.113z" transform="translate(-87.046 -21.5)" style="fill:#7c7c7c"/>
    </g>
</svg>
