<svg xmlns="http://www.w3.org/2000/svg" width="14.804" height="17.153" viewBox="0 0 14.804 17.153">
    <g style="opacity:.5">
        <path data-name="Path 16296" d="M12.421 2a5.848 5.848 0 0 0-5.848 5.848v4.561l-1.294 1.949A1.591 1.591 0 0 0 6.6 16.814h11.641a1.591 1.591 0 0 0 1.322-2.468l-1.294-1.938v-4.56A5.848 5.848 0 0 0 12.421 2z" transform="translate(-5.023 -2)" style="fill:#7c7c7c"/>
        <path data-name="Path 16297" d="M20.553 43.559A2.339 2.339 0 0 0 22.755 42H18.35a2.339 2.339 0 0 0 2.203 1.559z" transform="translate(-13.155 -26.406)" style="fill:#7c7c7c"/>
    </g>
</svg>
