<svg xmlns="http://www.w3.org/2000/svg" width="14.278" height="19.662" viewBox="0 0 14.278 19.662">
    <g data-name="notepad (1)" style="opacity:.5">
        <path data-name="Path 16280" d="M12.831 27.16h-1.863v.632a2.2 2.2 0 0 1-2.2 2.2H5.509a2.2 2.2 0 0 1-2.2-2.2v-.632H1.447A1.448 1.448 0 0 0 0 28.607v15.31a1.448 1.448 0 0 0 1.447 1.447h11.384a1.448 1.448 0 0 0 1.447-1.447v-15.31a1.448 1.448 0 0 0-1.447-1.447z" transform="translate(0 -25.701)" style="fill:#7c7c7c"/>
        <path data-name="Path 16281" d="M77.064 3.538h3.26a1.448 1.448 0 0 0 1.447-1.447v-.632h-1.227a.376.376 0 0 1-.367-.3 1.527 1.527 0 0 0-2.966 0 .376.376 0 0 1-.367.3h-1.227v.632a1.448 1.448 0 0 0 1.447 1.447zm0 0" transform="translate(-71.555)" style="fill:#7c7c7c"/>
    </g>
</svg>
