<svg xmlns="http://www.w3.org/2000/svg" width="15.678" height="15.68" viewBox="0 0 15.678 15.68">
    <path d="M17.785 11.768v4.279a2.307 2.307 0 0 1-2.609 2.609h-2.323a.261.261 0 0 1-.261-.261v-2.677A1.815 1.815 0 0 0 11.15 13.9a1.744 1.744 0 0 0-2.037 1.714V18.4a.261.261 0 0 1-.261.261H6.478a2.307 2.307 0 0 1-2.609-2.609v-4.284a3.852 3.852 0 0 0 1.653.365 4.354 4.354 0 0 0 2.67-.922 4.24 4.24 0 0 0 5.28 0 4.354 4.354 0 0 0 2.67.922 3.842 3.842 0 0 0 1.644-.365zM6.913 3C4.738 3 4.4 3.713 4.047 4.773l-.9 2.673a2.543 2.543 0 0 0 1.044 3.028 2.66 2.66 0 0 0 1.335.355 2.854 2.854 0 0 0 2.657-1.74 2.886 2.886 0 0 0 5.3 0 2.854 2.854 0 0 0 2.657 1.74 2.66 2.66 0 0 0 1.336-.355 2.543 2.543 0 0 0 1.044-3.028l-.9-2.673C17.249 3.713 16.915 3 14.741 3z" transform="translate(-2.988 -3)" style="fill:#7c7c7c;opacity:.5"/>
</svg>
