<svg xmlns="http://www.w3.org/2000/svg" width="15.677" height="17.245" viewBox="0 0 15.677 17.245">
    <path data-name="user (14)" d="M13.974 4.919A3.919 3.919 0 1 1 10.055 1a3.919 3.919 0 0 1 3.919 3.919zm-5.487 5.487A5.487 5.487 0 0 0 3 15.893a2.352 2.352 0 0 0 2.352 2.352h5.808a.462.462 0 0 0 .356-.7 4.705 4.705 0 0 1 1.33-6.286.4.4 0 0 0-.08-.73 5.511 5.511 0 0 0-1.143-.119zm7.055 1.568a.784.784 0 0 1 .784.784v1.568h1.568a.784.784 0 1 1 0 1.568h-1.569v1.568a.784.784 0 1 1-1.568 0v-1.569H13.19a.784.784 0 0 1 0-1.568h1.568v-1.567a.784.784 0 0 1 .783-.784z" transform="translate(-3 -1)" style="fill:#7c7c7c;fill-rule:evenodd;opacity:.5"/>
</svg>
