<svg xmlns="http://www.w3.org/2000/svg" width="15.436" height="15.434" viewBox="0 0 15.436 15.434">
    <g style="opacity:.5">
        <path data-name="Path 16284" d="M15.23 5.069 7.994.085a.507.507 0 0 0-.553 0L.206 5.069a.485.485 0 0 0-.206.4v9.326a.645.645 0 0 0 .643.643h2.573V8.2a.484.484 0 0 1 .484-.481h8.039a.483.483 0 0 1 .482.482v7.235h2.573a.645.645 0 0 0 .643-.643V5.468a.485.485 0 0 0-.207-.399z" style="fill:#7c7c7c" transform="translate(0 -.003)"/>
        <path data-name="Path 16285" d="M6.5 17.5h7.075v1.608H6.5z" transform="translate(-2.32 -6.247)" style="fill:#7c7c7c"/>
        <path data-name="Path 16286" d="M6.5 21.5h7.075v1.608H6.5z" transform="translate(-2.32 -7.674)" style="fill:#7c7c7c"/>
        <path data-name="Path 16287" d="M6.5 13.5h7.075v1.608H6.5z" transform="translate(-2.32 -4.82)" style="fill:#7c7c7c"/>
    </g>
</svg>
