<svg xmlns="http://www.w3.org/2000/svg" width="155.999" height="24.235" viewBox="0 0 155.999 24.235">
    <path data-name="Path 16268" d="M25.317-10.037V-33.5h-7.105v8.3H9.805v-8.3H2.7v23.461h7.105v-8.97h8.407v8.97zm15.406.422c7.914 0 11.572-4.256 11.572-10.1V-33.5h-7.21v13.577c0 2.251-1.477 4.045-4.362 4.045-2.919 0-4.4-1.794-4.4-4.045V-33.5h-7.207v13.824c0 5.805 3.693 10.061 11.608 10.061zm24.482 0c6.3 0 10.13-2.99 10.13-8.161 0-8.723-13.05-6.824-13.05-9.04 0-.6.387-1.055 1.794-1.055a11.856 11.856 0 0 1 6.894 2.322l3.8-5.03a15.478 15.478 0 0 0-9.954-3.271c-6.437 0-9.743 3.8-9.743 7.774 0 9.251 13.085 6.965 13.085 9.216 0 .915-1.266 1.266-2.6 1.266a10.934 10.934 0 0 1-7.563-3.025L54.3-13.343c2.5 2.251 5.91 3.728 10.905 3.728zm23.884-.422v-17.271h6.261V-33.5H75.687v6.191h6.3v17.271zm24.8 0v-6.191h-8.9V-33.5h-7.107v23.461zm20.647 0v-6.191h-10.695V-18.8h10.447v-6.191h-10.447v-2.322h10.693V-33.5h-17.8v23.461zm24.165 0-4.256-8.3a7.562 7.562 0 0 0 4.221-7.105c0-4.4-2.955-8.055-8.442-8.055H137.7v23.461h7.105v-7.387h2.568l3.236 7.387zm-9.567-13.577h-4.326v-3.693h4.326c1.2 0 2.322.563 2.322 1.829-.003 1.301-1.128 1.864-2.324 1.864z" transform="translate(-2.7 33.85)" style="fill:#1b74e4"/>
</svg>
