<svg xmlns="http://www.w3.org/2000/svg" width="64.596" height="60.054" viewBox="0 0 64.596 60.054">
    <g data-name="google (2)">
        <path data-name="Path 16330" d="M83.284 232.162h-51a3.119 3.119 0 0 1-3.12-3.119v-34.685H86.4v34.684a3.119 3.119 0 0 1-3.116 3.12z" transform="translate(-25.488 -172.108)" style="fill:#1b74e4"/>
        <path data-name="Path 16331" d="M430.321 194.358v34.684a3.119 3.119 0 0 1-3.119 3.12h3.9a3.119 3.119 0 0 0 3.119-3.12v-34.684z" transform="translate(-373.305 -172.108)" style="fill:#4e97f4"/>
        <path data-name="Path 16333" d="M144.149 18v22.25H128L129.746 18z" transform="translate(-111.851 -18)" style="fill:#e7dfdd"/>
        <path data-name="Path 16334" d="m17.895 18-1.746 22.25H0l2.881-19.584A3.119 3.119 0 0 1 5.967 18z" transform="translate(0 -18)" style="fill:#f4f1f1"/>
        <path data-name="Path 16335" d="M256 18v22.25h16.149L270.4 18z" transform="translate(-223.702 -18)" style="fill:#f4f1f1"/>
        <path data-name="Path 16336" d="m370.162 18 1.746 22.25h16.149l-2.881-19.584A3.119 3.119 0 0 0 382.089 18z" transform="translate(-323.461 -18)" style="fill:#e7dfdd"/>
        <path data-name="Path 16337" d="M440.781 20.666A3.119 3.119 0 0 0 437.7 18h-3.9a3.119 3.119 0 0 1 3.086 2.666l2.881 19.584h3.9z" transform="translate(-379.067 -18)" style="fill:#f4f1f1"/>
        <path data-name="Path 16338" d="M8.076 202.716A8.073 8.073 0 0 1 0 194.643v-.284h16.149v.284a8.073 8.073 0 0 1-8.073 8.073z" transform="translate(0 -172.109)" style="fill:#e7dfdd"/>
        <path data-name="Path 16339" d="M136.077 202.716a8.073 8.073 0 0 1-8.077-8.073v-.284h16.15v.284a8.073 8.073 0 0 1-8.073 8.073z" transform="translate(-111.852 -172.109)" style="fill:#e7dfdd"/>
        <path data-name="Path 16340" d="M264.077 202.716a8.073 8.073 0 0 1-8.077-8.073v-.284h16.15v.284a8.073 8.073 0 0 1-8.073 8.073z" transform="translate(-223.703 -172.109)" style="fill:#e7dfdd"/>
        <path data-name="Path 16341" d="M392.077 202.716a8.073 8.073 0 0 1-8.077-8.073v-.284h16.15v.284a8.073 8.073 0 0 1-8.073 8.073z" transform="translate(-335.554 -172.109)" style="fill:#e7dfdd"/>
        <path data-name="Path 16342" d="M438.673 194.358v.283a8.075 8.075 0 0 1-6.125 7.835 8.089 8.089 0 0 0 1.947.238 8.073 8.073 0 0 0 8.072-8.073v-.283h-3.9z" transform="translate(-377.976 -172.108)" style="fill:#f4f1f1"/>
    </g>
</svg>
