<svg xmlns="http://www.w3.org/2000/svg" width="103" height="103" viewBox="0 0 103 103">
    <g data-name="Group 19493" transform="translate(-100.519 -351.519)">
        <circle data-name="17e12b6cd0bb800436cd8b42a1ee54e1" cx="51.5" cy="51.5" r="51.5" transform="translate(100.519 351.519)" style="fill:#e7f1fd"/>
        <path data-name="fast-delivery (1)" d="M38.128.315c4.637 1.076 6.411 3.787 8.635 7.519h-8.635zm-27.1 7.833A1.376 1.376 0 0 1 12.6 9.61a1.567 1.567 0 0 1-1.562 1.567H1.567a1.567 1.567 0 1 0 0 3.134h14.1a1.567 1.567 0 1 1 .006 3.134H1.567a1.567 1.567 0 1 0 0 3.134h3.447v4.7a1.567 1.567 0 0 0 1.567 1.567h3.15a6.008 6.008 0 0 0 11.772 0h15.91a6.008 6.008 0 0 0 11.772 0h2.732a1.567 1.567 0 0 0 1.567-1.567v-9.4c0-4.6-4.849-4.9-4.854-4.91H36.561A1.567 1.567 0 0 1 34.994 9.4V0H6.581a1.567 1.567 0 0 0-1.567 1.567v3.447h-1.88a1.567 1.567 0 1 0 0 3.134zm34.3 15.466a2.873 2.873 0 1 1-4.9 2.031 2.873 2.873 0 0 1 4.902-2.031zm-27.682 0a2.873 2.873 0 1 1-4.9 2.031 2.873 2.873 0 0 1 4.902-2.031zm0 0" transform="translate(125.967 387.193)" style="fill:#1b74e4;fill-rule:evenodd"/>
    </g>
</svg>
