<svg xmlns="http://www.w3.org/2000/svg" width="103" height="103" viewBox="0 0 103 103">
    <g data-name="Group 19493" transform="translate(-100.519 -351.519)">
        <circle data-name="17e12b6cd0bb800436cd8b42a1ee54e1" cx="51.5" cy="51.5" r="51.5" transform="translate(100.519 351.519)" style="fill:#e7f1fd"/>
        <g data-name="Group 19522">
            <g data-name="Group 19521">
                <path data-name="Path 16323" d="M12.281 0H1.188A1.188 1.188 0 0 0 0 1.188v2.773h13.469V1.188A1.188 1.188 0 0 0 12.281 0z" transform="translate(132.426 382.733)" style="fill:#1b74e4"/>
            </g>
        </g>
        <g data-name="Group 19524">
            <g data-name="Group 19523">
                <path data-name="Path 16324" d="M39.968 84.991a1.188 1.188 0 0 0-1.191 0l-11.76 6.877v-5.847A1.188 1.188 0 0 0 25.229 85l-11.76 6.877V80H0v33.039a1.188 1.188 0 0 0 1.188 1.188h38.189a1.188 1.188 0 0 0 1.188-1.188V86.021a1.188 1.188 0 0 0-.597-1.03zm-21.745 20.877a1.188 1.188 0 0 1-1.188 1.188h-4.754a1.188 1.188 0 0 1-1.188-1.188v-4.754a1.188 1.188 0 0 1 1.188-1.188h4.754a1.188 1.188 0 0 1 1.188 1.188zm13.548 0a1.188 1.188 0 0 1-1.188 1.188h-4.754a1.188 1.188 0 0 1-1.188-1.188v-4.754a1.188 1.188 0 0 1 1.188-1.188h4.754a1.188 1.188 0 0 1 1.188 1.188z" transform="translate(132.426 309.071)" style="fill:#1b74e4"/>
            </g>
        </g>
    </g>
</svg>
