<svg xmlns="http://www.w3.org/2000/svg" width="103" height="103" viewBox="0 0 103 103">
    <g data-name="Group 19493" transform="translate(-100.519 -351.519)">
        <circle data-name="17e12b6cd0bb800436cd8b42a1ee54e1" cx="51.5" cy="51.5" r="51.5" transform="translate(100.519 351.519)" style="fill:#e7f1fd"/>
        <path data-name="shopping-cart (1)" d="M21.4 2.979 16.511.116a.687.687 0 1 0-.7 1.184l4.644 2.726 6.866 25.43a4.359 4.359 0 0 0 1.668 6.812.687.687 0 0 0 .266.053h3.055a3.49 3.49 0 1 0 1.936 0h12.377a3.49 3.49 0 1 0 1.936 0h3.117a.688.688 0 1 0 0-1.375H29.405a2.985 2.985 0 0 1-.984-4.656l24.318-3.1a.688.688 0 0 0 .591-.569L56 10.66a.688.688 0 0 0-.631-.8l-32.44-2.2h-.067l-1.148-4.267a.7.7 0 0 0-.316-.414zm26.422 4.99L35.454 7.13V4.46h12.368zm-13.743-.932-5.6-.379V.521h8.83v2.564h-2.542a.688.688 0 0 0-.688.69z" transform="translate(116.274 381.424)" style="fill:#1b74e4;fill-rule:evenodd"/>
    </g>
</svg>
