<svg xmlns="http://www.w3.org/2000/svg" width="103" height="103" viewBox="0 0 103 103">
    <g data-name="Group 19493" transform="translate(-100.519 -351.519)">
        <circle data-name="17e12b6cd0bb800436cd8b42a1ee54e1" cx="51.5" cy="51.5" r="51.5" transform="translate(100.519 351.519)" style="fill:#e7f1fd"/>
        <path data-name="Path 16325" d="M27.073 16.2a5.12 5.12 0 0 1-4.642-2.952L20.575 9.26l-1.857 3.992a5.12 5.12 0 0 1-4.641 2.948H1.99v11.6a1.389 1.389 0 0 0 1.11 1.363l17.155 3.713a1.443 1.443 0 0 0 .3.037h.037a1.851 1.851 0 0 0 .3-.037l17.155-3.713a1.391 1.391 0 0 0 1.1-1.355V16.2z" transform="translate(131.965 388.668)" style="fill:#1b74e4"/>
        <path data-name="Path 16326" d="M33.527 18.71H19.135a1.392 1.392 0 0 1-1.263-.8L11.383 3.982a1.393 1.393 0 0 1 1.558-1.949l17.168 3.712a1.387 1.387 0 0 1 1.014.886l3.713 10.211a1.39 1.39 0 0 1-1.309 1.868z" transform="translate(139.9 382.448)" style="fill:#1b74e4"/>
        <path data-name="Path 16327" d="M15.785 18.71H1.392a1.392 1.392 0 0 1-1.307-1.87L3.8 6.629a1.388 1.388 0 0 1 1.014-.884L21.98 2.032a1.393 1.393 0 0 1 1.558 1.949l-6.489 13.925a1.4 1.4 0 0 1-1.264.804z" transform="translate(130.261 382.448)" style="fill:#1b74e4"/>
    </g>
</svg>
